<svg viewBox="0 0 1200 900" xmlns="http://www.w3.org/2000/svg" role="img" aria-hidden="true">
  <rect width="1200" height="900" fill="#EFE6D2"/>
  <g opacity="0.9">
    <circle cx="360" cy="260" r="70" fill="none" stroke="#6E2A34" stroke-width="4"/>
    <circle cx="360" cy="260" r="42.0" fill="none" stroke="#6E2A34" stroke-width="2.5" opacity="0.7"/>
    <line x1="248.0" y1="169.0" x2="248.0" y2="351.0" stroke="#6E2A34" stroke-width="4" stroke-linecap="round"/>
    <line x1="230.5" y1="169.0" x2="230.5" y2="225.0" stroke="#6E2A34" stroke-width="4" stroke-linecap="round"/>
    <line x1="265.5" y1="169.0" x2="265.5" y2="225.0" stroke="#6E2A34" stroke-width="4" stroke-linecap="round"/>
    <path d="M 472.0 169.0 q -14 30 0 60 v 56.0" fill="none" stroke="#6E2A34" stroke-width="4" stroke-linecap="round"/>
    
    <path d="M 610 280 L 830 280 M 764.0 214.0 L 830 280 L 764.0 346.0
             M 698.0 247.0 L 659.5 197.5 M 698.0 313.0 L 659.5 362.5"
          fill="none" stroke="#1F4B4A" stroke-width="5" stroke-linecap="round" stroke-linejoin="round"/>
    <circle cx="560" cy="560" r="90" fill="none" stroke="#B4611C" stroke-width="4"/><line x1="664.0" y1="560.0" x2="684.0" y2="560.0" stroke="#B4611C" stroke-width="4" stroke-linecap="round"/><line x1="633.539105243401" y1="633.539105243401" x2="647.6812408671319" y2="647.6812408671319" stroke="#B4611C" stroke-width="4" stroke-linecap="round"/><line x1="560.0" y1="664.0" x2="560.0" y2="684.0" stroke="#B4611C" stroke-width="4" stroke-linecap="round"/><line x1="486.46089475659903" y1="633.539105243401" x2="472.3187591328681" y2="647.6812408671319" stroke="#B4611C" stroke-width="4" stroke-linecap="round"/><line x1="456.0" y1="560.0" x2="436.0" y2="560.0" stroke="#B4611C" stroke-width="4" stroke-linecap="round"/><line x1="486.46089475659903" y1="486.46089475659903" x2="472.3187591328681" y2="472.3187591328681" stroke="#B4611C" stroke-width="4" stroke-linecap="round"/><line x1="560.0" y1="456.0" x2="560.0" y2="436.0" stroke="#B4611C" stroke-width="4" stroke-linecap="round"/><line x1="633.539105243401" y1="486.46089475659903" x2="647.6812408671319" y2="472.3187591328681" stroke="#B4611C" stroke-width="4" stroke-linecap="round"/></g>
  <rect x="0" y="0" width="1200" height="900" fill="none" stroke="#A9862E" stroke-opacity="0.18" stroke-width="6"/>
</svg>
